<svg xmlns="http://www.w3.org/2000/svg" width="56" height="60" viewBox="0 0 56 60">
    <g fill="#9B9B9B">
        <path d="M48.22 59.903H34.319c-.64 0-1.158-.52-1.158-1.163V39.844H22.625V58.74c0 .643-.519 1.164-1.158 1.164H7.565c-.64 0-1.158-.521-1.158-1.164v-29.6c0-.304.118-.595.329-.812L27.12 7.336c.217-.225.517-.351.829-.351h.002c.313 0 .612.128.83.353l20.271 20.99c.21.217.327.508.327.81V58.74c0 .643-.519 1.164-1.158 1.164zm-12.743-2.327h11.585V29.61L27.947 9.817 8.723 29.613v27.963H20.31V38.68c0-.642.52-1.164 1.159-1.164h12.85c.64 0 1.159.522 1.159 1.164v18.895z"/>
        <path d="M1.18 30.172c-.289 0-.578-.109-.803-.326-.46-.446-.474-1.183-.03-1.645L27.014.396c.217-.227.517-.355.83-.356.342-.002.613.125.833.35l26.607 27.338c.447.46.439 1.196-.018 1.645-.458.449-1.192.44-1.638-.019L27.856 2.874 2.015 29.815c-.227.237-.53.357-.834.357z"/>
        <path d="M11.815 19.085c-.64 0-1.158-.522-1.158-1.164V4.654c0-.642.519-1.163 1.158-1.163.64 0 1.158.52 1.158 1.163v13.267c0 .642-.518 1.164-1.158 1.164z"/>
    </g>
</svg>
