<svg xmlns="http://www.w3.org/2000/svg" width="22" height="17" viewBox="0 0 22 17">
    <path fill="#9B9B9B" d="M1.571 3.546H20.43c.867 0 1.571-.718 1.571-1.603S21.296.34 20.429.34H1.57C.704.34 0 1.058 0 1.943s.704 1.603 1.571 1.603zM20.43 6.75H1.57C.704 6.751 0 7.47 0 8.354c0 .885.704 1.603 1.571 1.603H20.43c.867 0 1.571-.718 1.571-1.603 0-.884-.704-1.603-1.571-1.603zm0 6.412H1.57C.704 13.163 0 13.88 0 14.766c0 .884.704 1.603 1.571 1.603H20.43c.867 0 1.571-.719 1.571-1.603 0-.885-.704-1.603-1.571-1.603z"/>
</svg>
