<svg xmlns="http://www.w3.org/2000/svg" width="60" height="60" viewBox="0 0 60 60">
    <g fill="#9B9B9B">
        <path d="M40.01 39.907c-5.293 0-10.268-2.06-14.01-5.803-7.724-7.724-7.724-20.292 0-28.018C29.743 2.345 34.719.284 40.01.284s10.267 2.06 14.009 5.802c3.742 3.743 5.803 8.718 5.803 14.01s-2.06 10.266-5.803 14.008c-3.742 3.743-8.717 5.803-14.01 5.803zm0-37.225c-4.652 0-9.025 1.812-12.314 5.1-6.79 6.79-6.79 17.838 0 24.627 3.289 3.289 7.662 5.1 12.313 5.1 4.652 0 9.026-1.81 12.315-5.1 3.289-3.29 5.1-7.662 5.1-12.313 0-4.652-1.81-9.025-5.1-12.314-3.29-3.288-7.663-5.1-12.315-5.1z"/>
        <path d="M23.904 37.4c-.306 0-.613-.116-.847-.35-.468-.467-.468-1.227 0-1.695l2.297-2.3c.469-.469 1.228-.469 1.696 0 .468.467.468 1.226 0 1.695l-2.297 2.3c-.235.234-.542.35-.849.35z"/>
        <path d="M7.33 59.966c-1.92 0-3.726-.747-5.084-2.106-2.803-2.804-2.803-7.366 0-10.17l11.428-11.427c1.358-1.36 3.164-2.107 5.085-2.107 1.92 0 3.727.748 5.085 2.107 2.803 2.803 2.803 7.364 0 10.168l-11.43 11.43c-1.356 1.357-3.16 2.105-5.083 2.105zm11.43-23.413c-1.281 0-2.485.499-3.39 1.405L3.94 49.386c-1.868 1.868-1.868 4.91 0 6.78.906.905 2.11 1.403 3.39 1.403 1.28 0 2.483-.498 3.386-1.403l11.432-11.43c1.868-1.868 1.868-4.908 0-6.777-.905-.907-2.109-1.406-3.39-1.406zM40.01 33.802c-3.661 0-7.104-1.426-9.692-4.014-5.343-5.345-5.342-14.04 0-19.382 2.588-2.59 6.03-4.015 9.692-4.015 3.66 0 7.103 1.426 9.691 4.015 2.588 2.589 4.014 6.03 4.014 9.691 0 3.66-1.426 7.102-4.014 9.691-2.588 2.588-6.03 4.014-9.691 4.014zm0-25.014c-3.021 0-5.861 1.177-7.997 3.313-4.408 4.408-4.408 11.582 0 15.99 2.135 2.137 4.976 3.313 7.997 3.313 3.02 0 5.86-1.176 7.995-3.312 2.136-2.136 3.313-4.976 3.313-7.996 0-3.02-1.177-5.86-3.313-7.995-2.135-2.136-4.975-3.313-7.995-3.313z"/>
    </g>
</svg>
