<svg xmlns="http://www.w3.org/2000/svg" width="60" height="60" viewBox="0 0 60 60">
    <path fill="#9B9B9B" d="M35.447 0C32.998 0 31.2 2.26 31.2 4.8c0 1.402.56 2.701 1.462 3.6-.9.898-1.462 2.2-1.462 3.6 0 1.402.56 2.701 1.462 3.6-.9.898-1.462 2.2-1.462 3.6 0 1.41.569 2.715 1.481 3.614-.357.353-.648.762-.881 1.219-4.495.136-8.554 1.917-11.625 4.767H4.247C1.798 28.8 0 31.06 0 33.6c0 1.402.56 2.701 1.462 3.6C.562 38.098 0 39.4 0 40.8c0 1.402.56 2.701 1.462 3.6C.562 45.298 0 46.6 0 48c0 1.402.56 2.701 1.462 3.6C.562 52.498 0 53.8 0 55.2 0 57.74 1.798 60 4.247 60h27.056c.101 0 .202-.012.3-.038.249.01.494.038.745.038.353 0 .698-.032 1.046-.052.115.035.235.053.356.052h22.003C58.202 60 60 57.74 60 55.2c0-1.4-.561-2.702-1.463-3.6C59.44 50.701 60 49.402 60 48c0-1.4-.561-2.702-1.463-3.6.903-.899 1.463-2.198 1.463-3.6 0-1.4-.561-2.702-1.463-3.6.903-.899 1.463-2.198 1.463-3.6 0-1.4-.561-2.702-1.463-3.6.903-.899 1.463-2.198 1.463-3.6 0-1.4-.561-2.702-1.463-3.6.903-.899 1.463-2.198 1.463-3.6 0-1.4-.561-2.702-1.463-3.6C59.44 14.701 60 13.402 60 12c0-1.4-.561-2.702-1.463-3.6C59.44 7.501 60 6.202 60 4.8 60 2.26 58.202 0 55.753 0H35.447zm0 2.4h20.306c.927 0 1.847.95 1.847 2.4s-.92 2.4-1.847 2.4H35.447c-.927 0-1.847-.95-1.847-2.4s.92-2.4 1.847-2.4zm0 7.2h20.306c.927 0 1.847.95 1.847 2.4s-.92 2.4-1.847 2.4H35.447c-.927 0-1.847-.95-1.847-2.4s.92-2.4 1.847-2.4zm0 7.2h20.306c.927 0 1.847.95 1.847 2.4s-.92 2.4-1.847 2.4H35.447c-.927 0-1.847-.95-1.847-2.4s.92-2.4 1.847-2.4zm0 7.2h20.306c.927 0 1.847.95 1.847 2.4s-.92 2.4-1.847 2.4h-11.24c-2.639-2.447-6.003-4.106-9.746-4.613.217-.112.443-.187.68-.187zm-3.099 2.405C40.993 26.405 48 33.383 48 42c0 8.622-7.007 15.6-15.652 15.6C23.701 57.6 16.8 50.63 16.8 42c0-8.626 6.9-15.595 15.548-15.595zm1.083 4.757c-.471 0-.942.063-1.401.183-1.84.48-3.452 1.854-4.59 3.858-.56.99-.98 2.069-1.265 3.197h-2.353L22.8 40.8h3.005c-.063.8-.062 1.6.004 2.4h-2.226l-1.022 2.4h3.633c.284 1.106.696 2.17 1.247 3.14 1.137 2.005 2.75 3.374 4.589 3.854 1.839.48 3.842 0 5.456-1.388l.914-.778-1.556-1.828-.914.778c-1.117.953-2.211 1.178-3.296.895-1.084-.282-2.218-1.15-3.107-2.718-.336-.592-.588-1.262-.797-1.955h4.81l1.02-2.4h-6.3c-.072-.796-.073-1.603-.004-2.4h5.522l1.022-2.4h-6.094c.212-.718.474-1.405.82-2.016.89-1.568 2.024-2.43 3.108-2.714 1.085-.282 2.18-.062 3.296.89l.914.779 1.556-1.823-.914-.779c-1.21-1.033-2.64-1.574-4.055-1.575zM4.247 31.2h13.767c-1.086 1.448-1.955 3.06-2.569 4.8H4.247C3.32 36 2.4 35.05 2.4 33.6s.92-2.4 1.847-2.4zm42.431 0h9.075c.927 0 1.847.95 1.847 2.4s-.92 2.4-1.847 2.4h-6.492c-.617-1.74-1.494-3.352-2.583-4.8zM4.247 38.4H14.76c-.235 1.163-.361 2.369-.361 3.6 0 .406.035.8.06 1.2H4.248c-.927 0-1.847-.95-1.847-2.4s.92-2.4 1.847-2.4zm45.675 0h5.831c.927 0 1.847.95 1.847 2.4s-.92 2.4-1.847 2.4H50.34c.027-.399.061-.795.061-1.2 0-.161-.031-.32-.094-.469h-.004c-.03-1.07-.172-2.115-.38-3.131zM4.247 45.6H14.76c.344 1.7.935 3.31 1.72 4.8H4.247C3.32 50.4 2.4 49.45 2.4 48s.92-2.4 1.847-2.4zm45.792 0h5.714c.927 0 1.847.95 1.847 2.4s-.92 2.4-1.847 2.4H48.3c.793-1.49 1.39-3.1 1.74-4.8zm-32.086 7.116c1.467 1.979 3.322 3.647 5.466 4.884H4.247c-.927 0-1.847-.95-1.847-2.4s.92-2.4 1.847-2.4h13.256c.154.001.307-.028.45-.084zm28.8.084h9c.927 0 1.847.95 1.847 2.4s-.92 2.4-1.847 2.4H41.306c2.126-1.22 3.977-2.856 5.447-4.8z"/>
</svg>
